<?xml version="1.0" standalone="no"?>
<!DOCTYPE svg PUBLIC "-//W3C//DTD SVG 20010904//EN"
 "http://www.w3.org/TR/2001/REC-SVG-20010904/DTD/svg10.dtd">
<svg version="1.0" xmlns="http://www.w3.org/2000/svg"
 width="600.000000pt" height="600.000000pt" viewBox="0 0 600.000000 600.000000"
 preserveAspectRatio="xMidYMid meet">
<g transform="translate(0.000000,600.000000) scale(0.100000,-0.100000)"
fill="#000000" stroke="none">
<path d="M4622 4125 c-59 -90 -146 -225 -195 -299 -99 -154 -121 -172 -253
-207 -72 -19 -118 -22 -513 -30 -766 -14 -1219 -50 -1951 -155 -309 -44 -412
-65 -541 -110 -301 -104 -493 -260 -562 -454 -61 -175 -93 -495 -63 -649 33
-177 131 -314 270 -381 84 -40 286 -86 451 -102 171 -17 1554 -17 2075 0 820
27 1119 64 1475 184 224 74 380 163 506 288 174 171 241 346 240 626 -1 369
-77 509 -344 634 -85 40 -209 73 -388 105 -95 17 -97 18 -103 47 -17 85 4 412
35 551 22 99 20 117 -11 117 -16 0 -46 -40 -128 -165z m38 -219 c-8 -146 -5
-279 6 -334 6 -31 44 -46 187 -72 171 -31 256 -54 343 -95 208 -96 273 -199
295 -468 23 -291 -41 -495 -211 -668 -125 -126 -261 -205 -489 -283 -287 -98
-572 -141 -1111 -166 -715 -32 -2239 -39 -2460 -11 -141 19 -297 57 -370 93
-123 60 -202 170 -236 329 -35 163 8 514 81 664 77 158 245 279 520 372 116
39 226 60 564 107 712 100 1109 131 1866 146 502 10 538 14 665 77 l75 38 140
216 c77 119 141 216 142 215 1 -1 -2 -72 -7 -160z"/>
</g>
</svg>
